<svg width="16" height="12" viewBox="0 0 16 12" fill="none" xmlns="http://www.w3.org/2000/svg">
<path fill-rule="evenodd" clip-rule="evenodd" d="M11.187 5.98609C11.187 7.75328 9.75439 9.18604 7.98706 9.18604C6.21974 9.18604 4.78711 7.75328 4.78711 5.98609C4.78711 4.2189 6.21974 2.78613 7.98706 2.78613C9.75439 2.78613 11.187 4.2189 11.187 5.98609ZM10.2672 5.98609C10.2672 7.2454 9.24627 8.26622 7.98706 8.26622C6.72785 8.26622 5.70706 7.24544 5.70706 5.98609C5.70706 4.72674 6.72785 3.70595 7.98706 3.70595C9.24627 3.70595 10.2672 4.72674 10.2672 5.98609Z" fill="#9CA7B7"/>
<path fill-rule="evenodd" clip-rule="evenodd" d="M7.98686 1.08618C3.77829 1.08618 1.54115 3.80655 0.722403 5.0863C0.368574 5.63985 0.368574 6.33276 0.722403 6.8863C1.54084 8.16599 3.77798 10.8864 7.98686 10.8864C12.1958 10.8864 14.4329 8.16605 15.2513 6.8863C15.6051 6.33276 15.6051 5.63985 15.2513 5.0863C14.433 3.80662 12.1959 1.08618 7.98686 1.08618ZM1.56515 5.62493C2.30256 4.47139 4.27413 2.0863 7.98686 2.0863C11.6997 2.0863 13.6711 4.47142 14.4086 5.62493C14.5524 5.84993 14.5524 6.12262 14.4086 6.34761C13.6709 7.50115 11.6996 9.88624 7.98686 9.88624C4.27406 9.88624 2.30263 7.50112 1.56515 6.34761C1.42117 6.12261 1.42117 5.84991 1.56515 5.62493Z" fill="#9CA7B7"/>
<path fill-rule="evenodd" clip-rule="evenodd" d="M13.5847 0.386303C13.7799 0.581571 13.7799 0.898189 13.5847 1.09345L3.09187 11.5862C2.89661 11.7815 2.57999 11.7815 2.38473 11.5862C2.18946 11.3911 2.18946 11.0745 2.38473 10.8792L12.8775 0.386441C13.0728 0.191173 13.3894 0.191173 13.5845 0.386441L13.5847 0.386303Z" fill="#9CA7B7"/>
</svg>
