<svg width="81" height="57" viewBox="0 0 81 57" fill="currentColor" xmlns="http://www.w3.org/2000/svg">
<path d="M80.8415 46.3385C80.8438 46.3121 80.849 46.288 80.849 46.2598C80.8501 46.2368 80.8565 46.2167 80.8565 46.1925C80.8565 45.9908 80.8174 45.7994 80.7588 45.6183C80.7501 45.5919 80.7421 45.5637 80.7323 45.5373C80.6524 45.3229 80.5369 45.1304 80.3903 44.9591C80.3788 44.9464 80.3765 44.9309 80.365 44.9183C80.3576 44.9108 80.3472 44.9079 80.3397 44.8993C80.1828 44.7309 79.996 44.5935 79.7857 44.4924C79.7678 44.4837 79.754 44.4722 79.7362 44.4659C79.5373 44.3757 79.3189 44.324 79.0896 44.3061C79.0655 44.305 79.0453 44.2998 79.0223 44.2998C78.9982 44.2987 78.9769 44.2923 78.9511 44.2923H77.3147C76.3956 27.2311 63.1923 13.2732 46.1292 10.5525C46.6884 9.58399 47.0345 8.47586 47.0345 7.27915C47.0345 3.64604 44.0784 0.689941 40.4452 0.689941C36.8121 0.689941 33.856 3.64604 33.856 7.27915C33.856 8.43157 34.1791 9.49894 34.7015 10.4421C17.2871 12.8734 3.71907 26.9869 2.78766 44.2909H1.94331C1.91917 44.2909 1.8979 44.2972 1.87376 44.2983C1.84847 44.2983 1.82548 44.3035 1.80134 44.3058C1.57315 44.3225 1.35646 44.3742 1.15873 44.4645C1.14091 44.4719 1.12597 44.4834 1.1093 44.4909C0.89893 44.5938 0.712705 44.7306 0.55407 44.9001C0.547748 44.9064 0.539126 44.9087 0.531079 44.9168C0.520733 44.9283 0.518434 44.9432 0.508088 44.9547C0.359797 45.126 0.243113 45.3197 0.163214 45.5364C0.152868 45.5628 0.146546 45.5881 0.137923 45.6163C0.0798708 45.8002 0.0390625 45.9905 0.0390625 46.1917C0.0390625 46.2146 0.0453851 46.2359 0.0453851 46.2589C0.0453851 46.2853 0.0505579 46.3106 0.0528572 46.3388C0.0706747 46.5647 0.121255 46.7785 0.20977 46.9751C0.218392 46.994 0.229888 47.0107 0.240234 47.0297C0.343119 47.2377 0.478767 47.424 0.646024 47.5797C0.653497 47.5872 0.656371 47.5976 0.663843 47.605L9.78377 55.845C9.79642 55.8577 9.81424 55.86 9.82803 55.8715C9.98781 56.0071 10.1677 56.1209 10.3666 56.1997C10.3896 56.2083 10.412 56.2135 10.435 56.2209C10.6316 56.2905 10.8379 56.3347 11.0575 56.3347H69.8309C70.0504 56.3347 70.2579 56.2905 70.4545 56.2209C70.4775 56.2135 70.4999 56.2083 70.524 56.1997C70.7218 56.1209 70.9017 56.0094 71.0615 55.8715C71.0752 55.86 71.0919 55.8565 71.1057 55.845L80.2256 47.605C80.2331 47.5975 80.236 47.5872 80.2446 47.5797C80.4119 47.424 80.5475 47.2377 80.6493 47.0297C80.6596 47.0107 80.6722 46.994 80.6797 46.9751C80.7751 46.7785 80.8257 46.563 80.8424 46.3382L80.8415 46.3385ZM69.1029 52.5312H11.7936L6.88268 48.0945H74.0123L69.1029 52.5312ZM40.4497 4.49199C41.986 4.49199 43.2363 5.74213 43.2363 7.27858C43.2363 8.81503 41.9862 10.0652 40.4497 10.0652C38.9132 10.0652 37.6631 8.81503 37.6631 7.27858C37.6631 5.74213 38.9132 4.49199 40.4497 4.49199ZM40.0543 13.8684C57.8733 13.8684 72.4817 27.3503 73.5058 44.2916L6.59979 44.2911C7.62521 27.3505 22.2338 13.8678 40.0528 13.8678L40.0543 13.8684Z" fill="currentColor"/>
</svg>
