<svg width="14" height="8" viewBox="0 0 14 8" fill="none" xmlns="http://www.w3.org/2000/svg">
<path d="M13.0681 3.75601C11.6934 1.92426 9.53912 0.914307 7.00095 0.914307C4.46279 0.914307 2.30862 1.92426 0.933762 3.75587C0.831975 3.89221 0.831975 4.08038 0.933762 4.21671C2.30855 6.04846 4.46279 7.05841 7.00095 7.05841C9.53912 7.05841 11.6933 6.04846 13.0681 4.21684C13.1699 4.08037 13.1699 3.89234 13.0681 3.75601ZM7.00095 6.29034C4.8198 6.29034 2.96142 5.47431 1.7285 3.98638C2.95919 2.49844 4.8197 1.68241 7.00095 1.68241C9.18221 1.68241 11.0405 2.49844 12.2734 3.98638C11.0407 5.47431 9.18221 6.29034 7.00095 6.29034Z" fill="#9CA7B7"/>
</svg>
