<svg width="79" height="90" viewBox="0 0 79 90" fill="none" xmlns="http://www.w3.org/2000/svg">
<path d="M2.22384 89.964H26.5906C27.1363 89.9655 27.6305 89.6413 27.8474 89.1402L31.3578 80.8197L35.5287 72.0224V72.0231C35.6783 71.677 35.6783 71.2848 35.5287 70.9394C35.3919 70.5925 35.1176 70.3175 34.7699 70.1807L32.9177 69.4332L33.3401 68.7395V68.7403C36.0676 66.7398 38.2048 64.042 39.5265 60.9292C40.8347 64.0404 42.9566 66.7422 45.6698 68.7509L46.0922 69.4446L44.2392 70.1921C43.8923 70.3281 43.6173 70.6032 43.4812 70.95C43.3316 71.2962 43.3316 71.6884 43.4812 72.0337L47.6521 80.8311L51.1625 89.1516C51.3787 89.6527 51.8737 89.9761 52.4193 89.9746H76.8286C77.2708 89.9549 77.675 89.7207 77.9116 89.3466C78.161 88.9604 78.1942 88.473 77.9985 88.0573L70.263 71.1776L66.4708 62.6728L66.4715 62.6735C66.17 62.0115 65.4029 61.7017 64.7273 61.9692L62.2032 62.9766L59.4078 58.2744C59.5484 56.2597 60.0472 47.928 58.7798 43.1072H58.7791C57.8473 39.7239 56.4741 36.4788 54.6945 33.4538C52.4447 29.7402 50.8917 25.6465 50.1117 21.3743C49.5268 18.1239 49.1474 15.3829 48.8443 13.1732C47.88 6.13147 47.3926 2.58857 42.4956 0.789933V0.789178C41.5071 0.419623 40.4 0.55263 39.5271 1.14664C38.6543 0.552649 37.5472 0.419643 36.5586 0.789178C31.6616 2.58779 31.1416 6.13052 30.2099 13.1724C29.9068 15.339 29.5275 18.145 28.9425 21.3735V21.3743C28.1626 25.6464 26.6096 29.74 24.3598 33.4538C22.5801 36.479 21.2069 39.7239 20.2752 43.1072C19.0078 47.9719 19.5058 56.3028 19.6472 58.2744L16.8518 62.987L14.3277 61.9796H14.3269C13.6513 61.7121 12.8843 62.022 12.5827 62.684L8.79044 71.1888L1.00119 88.0467C0.806213 88.4623 0.838707 88.9498 1.08809 89.3359C1.33521 89.7251 1.76371 89.9617 2.22545 89.9639L2.22384 89.964ZM74.7032 87.2555H53.3486L50.6937 81.0261L68.3533 73.5505L74.7032 87.2555ZM64.5191 64.9704L67.2276 71.0372L49.5898 78.5022L46.5888 72.1639L64.5191 64.9704ZM40.8797 29.0229C40.9001 28.6034 41.1442 28.2271 41.519 28.0366C41.9226 27.7956 42.4259 27.7956 42.8294 28.0366C44.1081 28.8384 44.7906 30.8426 44.7906 33.8436C44.7906 43.5938 45.9929 46.2269 46.1229 46.4973L46.1237 46.4981C46.4532 47.1556 47.2497 47.4261 47.911 47.1049C48.5722 46.7747 48.8586 45.9834 48.5609 45.3063C48.5609 45.3063 47.4772 42.8253 47.4772 33.8444C47.4772 29.8035 46.3935 27.0731 44.2268 25.7407L44.2275 25.74C43.2134 25.1165 41.9741 24.9775 40.8471 25.3606V3.69268C40.8562 3.58537 40.9167 3.48863 41.0096 3.4327C41.1623 3.32917 41.3557 3.30499 41.5296 3.36771C44.7799 4.57005 45.1268 6.32558 46.1228 13.5843C46.4372 15.8274 46.8165 18.6113 47.4015 21.8942C48.2448 26.4481 49.8962 30.8138 52.2766 34.7868C53.949 37.6019 55.242 40.6256 56.1232 43.779C57.423 48.7735 56.6431 58.4157 56.6326 58.5132C56.6084 58.7943 56.6771 59.0755 56.8275 59.3143L59.6229 64.0489L48.6477 68.4154L47.8459 67.1155V67.1148C47.7499 66.9651 47.629 66.8337 47.4884 66.7248C43.3788 63.8447 40.9166 59.154 40.8797 54.1362L40.8797 29.0229ZM22.1907 59.2709C22.3411 59.0321 22.4098 58.751 22.3857 58.4691C22.3857 58.3716 21.5944 48.7189 22.895 43.7349C23.7762 40.5813 25.0692 37.5576 26.7416 34.7427C29.1222 30.7707 30.7734 26.404 31.6168 21.8509C32.2017 18.6005 32.5811 15.784 32.8954 13.541C33.8922 6.28225 34.2497 4.52676 37.4887 3.32438C37.6625 3.26619 37.8537 3.29038 38.0086 3.38938C38.1015 3.44454 38.162 3.54127 38.1711 3.64935V25.3173C37.0443 24.9341 35.805 25.0732 34.7907 25.6967C32.6241 27.029 31.5403 29.7594 31.5403 33.8003C31.5403 42.6195 30.5216 45.1543 30.4566 45.2622L30.4573 45.263C30.1278 45.9356 30.4067 46.748 31.0801 47.0775C31.7534 47.4062 32.5658 47.1273 32.8945 46.4548C33.0245 46.1842 34.2269 43.5408 34.2269 33.8011C34.2269 30.8 34.9093 28.7959 36.188 27.994L36.1888 27.9933C36.5923 27.7522 37.0956 27.7522 37.4992 27.9933C37.874 28.1837 38.1181 28.5593 38.1385 28.9795V54.1356C38.1015 59.1537 35.6393 63.8444 31.5298 66.7243C31.3892 66.8331 31.2683 66.9646 31.1723 67.1142L30.3705 68.4141L19.3959 64.0052L22.1907 59.2709ZM14.5307 64.9698L32.4609 72.1635L29.4599 78.5018L11.8229 71.0368L14.5307 64.9698ZM10.6954 73.4957L28.3558 81.0257L25.7017 87.3094H4.3471L10.6954 73.4957Z" fill="white"/>
</svg>
